HIERARCHY
ROOT ROOT
{
	OFFSET 0.000000 56.020000 -5.659234
	CHANNELS 6 Xposition Yposition Zposition Xrotation Yrotation Zrotation 
	JOINT C_spine0001_bind_JNT
	{
		OFFSET 0.000000 1.618999 0.000000
		CHANNELS 3 Xrotation Yrotation Zrotation
		JOINT C_spine0002_bind_JNT
		{
			OFFSET 0.000000 4.942001 0.000001
			CHANNELS 3 Xrotation Yrotation Zrotation
			JOINT C_spine0003_bind_JNT
			{
				OFFSET 0.000000 4.942001 -0.000000
				CHANNELS 3 Xrotation Yrotation Zrotation
				JOINT C_neck0001_bind_JNT
				{
					OFFSET 0.000000 17.026009 -0.000000
					CHANNELS 3 Xrotation Yrotation Zrotation
					JOINT C_neck0002_bind_JNT
					{
						OFFSET 0.000000 3.249985 0.000000
						CHANNELS 3 Xrotation Yrotation Zrotation
						JOINT C_head_bind_JNT
						{
							OFFSET 0.000000 5.278008 0.000000
							CHANNELS 3 Xrotation Yrotation Zrotation
							End Site
							{
								OFFSET 0.000000 0.000000 0.000000
							}
						}
					}
				}
				JOINT L_clavicle_bind_JNT
				{
					OFFSET 4.590000 12.067001 0.834000
					CHANNELS 3 Xrotation Yrotation Zrotation
					JOINT L_armUpper0001_bind_JNT
					{
						OFFSET 7.812635 0.512001 -3.452945
						CHANNELS 3 Xrotation Yrotation Zrotation
						JOINT L_armLower0001_bind_JNT
						{
							OFFSET 15.265892 -6.552116 -0.058157
							CHANNELS 3 Xrotation Yrotation Zrotation
							JOINT L_hand0001_bind_JNT
							{
								OFFSET 14.747667 -6.369995 5.049225
								CHANNELS 3 Xrotation Yrotation Zrotation
								End Site
								{
									OFFSET 0.000000 0.000000 0.000000
								}
							}
						}
					}
				}
				JOINT R_clavicle_bind_JNT
				{
					OFFSET -4.590000 12.067001 0.834000
					CHANNELS 3 Xrotation Yrotation Zrotation
					JOINT R_armUpper0001_bind_JNT
					{
						OFFSET -7.812635 0.512001 -3.452945
						CHANNELS 3 Xrotation Yrotation Zrotation
						JOINT R_armLower0001_bind_JNT
						{
							OFFSET -15.265890 -6.552124 -0.058160
							CHANNELS 3 Xrotation Yrotation Zrotation
							JOINT R_hand0001_bind_JNT
							{
								OFFSET -14.746784 -6.369629 5.048937
								CHANNELS 3 Xrotation Yrotation Zrotation
								End Site
								{
									OFFSET 0.000000 0.000000 0.000000
								}
							}
						}
					}
				}
			}
		}
	}
	JOINT C_pelvis0001_bind_JNT
	{
		OFFSET -0.000000 0.000000 0.000000
		CHANNELS 3 Xrotation Yrotation Zrotation
		JOINT L_legUpper0001_bind_JNT
		{
			OFFSET 6.599999 -6.027000 0.539000
			CHANNELS 3 Xrotation Yrotation Zrotation
			JOINT L_legLower0001_bind_JNT
			{
				OFFSET -0.140713 -19.187443 0.040261
				CHANNELS 3 Xrotation Yrotation Zrotation
				JOINT L_foot0001_bind_JNT
				{
					OFFSET -0.132215 -18.028637 -1.138370
					CHANNELS 3 Xrotation Yrotation Zrotation
					JOINT L_foot0002_bind_JNT
					{
						OFFSET 0.007014 -4.693133 9.886524
						CHANNELS 3 Xrotation Yrotation Zrotation
						End Site
						{
							OFFSET 0.000000 0.000000 0.000000
						}
					}
				}
			}
		}
		JOINT R_legUpper0001_bind_JNT
		{
			OFFSET -6.599999 -6.027000 0.539000
			CHANNELS 3 Xrotation Yrotation Zrotation
			JOINT R_legLower0001_bind_JNT
			{
				OFFSET 0.140710 -19.187164 0.040550
				CHANNELS 3 Xrotation Yrotation Zrotation
				JOINT R_foot0001_bind_JNT
				{
					OFFSET 0.132215 -18.028633 -1.138362
					CHANNELS 3 Xrotation Yrotation Zrotation
					JOINT R_foot0002_bind_JNT
					{
						OFFSET -0.007014 -4.693128 9.886505
						CHANNELS 3 Xrotation Yrotation Zrotation
						End Site
						{
							OFFSET 0.000000 0.000000 0.000000
						}
					}
				}
			}
		}
	}
}
MOTION
Frames: 10
Frame Time: 0.033333
18.098072 47.794411 51.320240 -1.109454 -89.842979 -1.154567 -23.759237 85.485504 22.960268 21.577919 -4.190690 3.515616 9.465694 -3.269442 1.431530 -2.279664 0.159471 -5.230609 2.890056 -14.138680 -1.384894 16.932592 5.320819 13.845251 -4.200270 -2.236397 4.481730 -19.856173 -8.643752 -58.945889 -13.892722 -29.166088 -29.548458 17.537971 -36.605225 -22.097706 -0.087818 -15.595003 3.630624 -6.223564 -10.018600 51.651161 1.850931 8.654305 3.443400 15.817263 25.431967 33.535511 32.053215 86.104736 -31.550735 -13.885406 0.745047 0.010469 43.801407 0.409299 -1.408616 -8.624940 -16.315624 -4.865882 -22.925884 -0.204179 0.328269 -18.366726 -0.254139 3.292674 26.464565 1.293164 0.321054 -8.578403 -3.124089 -3.500612 -1.455998 0.300571 -0.674467 
17.865936 47.812981 51.975033 -0.581969 -89.319580 -0.629240 -24.330997 85.323318 23.689283 21.737238 -3.908101 3.825519 9.563949 -3.097914 1.575351 -2.094100 0.518573 -5.382269 2.786399 -14.835925 -0.951084 15.833624 4.726686 13.565527 -4.124686 -1.955860 4.302584 -18.422066 -7.685275 -58.202286 -13.488923 -29.330402 -29.485819 17.745035 -37.607838 -22.903030 0.230448 -15.214143 3.909578 -7.038254 -10.213019 51.294689 0.081596 10.247383 5.077610 15.880390 24.830927 32.648762 31.306211 86.013458 -30.791407 -16.054949 0.511476 1.372078 47.924431 1.177046 -2.874877 -7.175854 -19.081772 -7.235634 -25.521677 -0.465274 0.893713 -17.396252 0.133937 3.494969 26.373291 0.971732 0.666674 -9.448796 -3.429937 -4.185139 -1.567545 0.248036 -0.654301 
17.629559 47.748055 52.632046 -0.329169 -89.467705 -0.368620 -27.738096 86.029648 27.634710 21.618479 -3.906939 4.006444 9.552958 -2.832692 1.423363 -1.747192 0.319485 -4.985109 2.560416 -15.183756 -0.998337 15.084573 4.509284 13.194268 -3.991170 -1.653216 4.214053 -16.687975 -6.634151 -57.503914 -12.835163 -28.981430 -28.726336 17.826059 -38.672867 -23.796886 0.346791 -15.480568 3.869640 -7.441669 -9.626099 51.060650 -1.690048 12.380980 6.885439 15.716544 24.217949 31.683945 34.848129 86.622978 -33.963547 -18.011652 0.169500 2.354070 51.602016 1.932599 -3.668149 -5.813486 -20.751907 -9.502547 -26.342077 -0.708203 0.862315 -16.558090 0.032677 3.440246 26.992786 1.217491 0.542360 -10.654350 -3.937222 -4.507890 -1.667209 0.290101 -0.786603 
17.598864 47.630192 53.088295 -0.314909 -89.143158 -0.365816 -32.253963 85.922867 32.373260 21.815466 -3.496825 4.183697 9.858026 -2.763123 1.428059 -1.986392 0.531633 -4.785750 2.277319 -15.608364 -0.761210 14.002831 4.038006 12.942505 -4.118712 -0.314717 4.248415 -14.293770 -4.593551 -56.957844 -10.871854 -27.812603 -27.310947 17.706032 -40.090218 -24.627569 -0.032059 -15.198724 3.665012 -7.439221 -9.470846 50.910622 -3.168267 15.215152 9.023511 15.164544 23.716925 30.540718 31.478237 86.660469 -30.684025 -19.502577 0.357486 3.776163 53.560169 2.156194 -3.771699 -4.882659 -21.244427 -10.611821 -23.687315 -0.761919 1.162749 -16.033552 0.113281 3.501526 27.594938 1.098955 0.329563 -11.322865 -4.116206 -4.700388 -2.002049 0.118509 -0.634143 
17.501236 47.660526 53.399403 0.193080 -88.591515 0.169044 -34.899544 85.481033 35.603477 21.969519 -3.173362 3.818071 9.604648 -2.498978 1.435132 -1.710847 0.373031 -4.316319 2.102629 -15.862230 -0.857269 13.494048 4.053943 12.288750 -3.712994 0.526216 3.942338 -11.642226 -2.245438 -56.431721 -8.550954 -26.039831 -24.505713 16.421642 -40.958000 -25.690947 0.032678 -15.350836 3.327934 -7.653647 -9.142181 51.326286 -4.671923 18.275896 10.231006 14.791119 23.442072 29.770638 19.449947 86.610657 -18.223093 -20.936739 0.627380 4.248537 55.749908 2.549112 -3.778224 -4.744233 -19.558638 -10.169217 -20.454170 -0.408022 1.432496 -14.937109 0.040724 3.471267 28.026075 1.543613 -0.244540 -12.118608 -4.257803 -4.752607 -1.815757 -0.144501 -0.553281 
17.460764 47.630978 53.532173 -0.309956 -87.799217 -0.352796 -32.639931 84.531364 33.764130 22.051750 -2.598323 3.615310 9.784567 -2.152730 1.385697 -1.793042 0.378654 -4.238892 2.061206 -15.908987 -0.792630 12.752595 3.698345 12.158935 -3.940170 1.941837 3.698890 -8.940125 -0.235684 -55.993698 -5.950471 -23.272375 -21.576765 14.041757 -41.067879 -26.655581 -0.183760 -15.169031 3.135439 -8.081491 -8.533468 51.460690 -6.305190 21.879225 12.213250 14.112092 23.001690 28.299957 10.164242 85.910736 -8.626847 -21.693310 0.629873 4.437743 54.935219 2.974641 -3.340435 -5.082049 -16.342686 -8.573160 -16.903276 -0.537456 1.652403 -14.362716 0.297100 3.077039 27.918030 1.732300 -0.124409 -12.139944 -4.555939 -5.008039 -1.722401 0.113497 -0.519604 
17.440645 47.648132 53.552860 -0.289886 -87.887421 -0.317986 -37.482426 84.054718 39.176193 21.974161 -2.278794 3.056824 9.855474 -1.835969 1.117117 -1.639381 0.624449 -3.585685 1.662618 -16.156815 -1.432661 12.967525 3.949210 11.863214 -4.013391 2.996729 3.484208 -6.232812 2.189190 -55.916702 -3.373898 -19.584797 -18.189335 11.674957 -40.640678 -26.881714 -0.227019 -15.189196 2.828150 -8.398968 -7.312326 51.643494 -8.306264 25.185743 13.950251 13.643167 22.953293 27.443905 -0.105891 85.843285 2.010808 -21.894880 0.136453 4.404282 52.904251 3.896299 -3.671725 -6.297019 -14.058928 -7.165426 -14.165302 -0.262726 1.230407 -13.406833 0.066473 2.976635 27.818485 2.581718 -0.724258 -12.186113 -4.758525 -4.724232 -1.617030 -0.053817 -0.570046 
17.531815 47.849979 53.619507 -0.170552 -87.538513 -0.204396 -37.750923 83.298515 39.792706 21.951155 -1.512740 2.908463 9.707735 -1.438989 1.163320 -1.700306 0.661628 -3.492596 1.571041 -16.422537 -1.682372 13.165589 3.782853 11.318508 -3.549192 4.207458 2.870138 -3.948148 3.538440 -55.719292 -2.073120 -14.639791 -15.457301 9.403677 -40.863022 -27.188816 -0.396271 -15.300572 2.435932 -8.768847 -6.553833 51.441746 -10.440031 29.390343 16.720774 13.620326 22.039112 25.781958 -3.926436 85.431931 6.167805 -21.968063 -0.261888 4.641494 47.550518 4.328849 -2.871683 -6.240299 -11.446972 -7.030593 -11.085027 -0.493639 0.625438 -12.891332 0.396491 2.505630 27.576992 2.798528 -1.039754 -12.258592 -4.971811 -4.341833 -1.555145 -0.333503 -0.412410 
17.660295 47.885433 53.830460 -0.154907 -87.497345 -0.180463 -39.799976 83.196625 42.140591 21.471889 -1.072743 2.611061 9.610031 -1.126731 1.183527 -1.811496 0.806714 -3.059609 1.782329 -16.474674 -2.161041 13.332696 3.562494 11.258964 -3.287922 5.541436 2.436154 -1.527860 5.893541 -54.997307 -0.628272 -10.242506 -13.573438 8.054571 -40.432259 -27.754900 -0.266426 -15.475828 2.061208 -9.060081 -5.946102 51.490437 -12.655929 32.806942 19.340319 13.294410 21.599995 24.992540 -8.261611 85.518471 10.624482 -21.593441 -0.292553 4.404027 40.407059 4.402296 -1.944023 -5.915823 -10.264781 -7.043136 -7.676224 -0.631821 0.586129 -12.172839 0.415015 2.583670 27.412292 3.208475 -1.567243 -11.985862 -5.266311 -4.154609 -1.744608 -0.157633 -0.513809 
17.940290 48.099907 54.325642 -0.016656 -88.016624 -0.052699 -42.489624 83.779274 44.894417 20.941114 -0.431421 2.554330 9.162237 -0.304534 1.303242 -1.883220 0.547127 -2.823430 1.576841 -16.768900 -2.337720 13.492787 3.085001 10.344128 -2.734609 5.902361 1.700368 0.443734 8.369765 -54.144287 0.621407 -5.966424 -11.626342 7.665546 -39.991695 -29.179737 -0.206879 -15.779932 1.779824 -9.297729 -5.739540 51.201698 -15.767004 36.328079 22.417562 13.730672 20.975803 24.693956 -8.416130 85.954697 10.849264 -20.798738 -0.047140 4.730049 32.031170 4.097517 -1.106394 -4.008284 -9.178957 -7.710086 -4.851032 -0.901145 0.824364 -11.090607 0.394999 2.125352 26.816505 3.932385 -1.981197 -12.317705 -5.712152 -3.621385 -1.782566 -0.229521 -0.400165 
